<svg version="1.1" id="Layer_1" xmlns="http://www.w3.org/2000/svg" xmlns:xlink="http://www.w3.org/1999/xlink" x="0px" y="0px" viewBox="0 0 1200 1200" enable-background="new 0 0 1200 1200" xml:space="preserve">
<g>
	<path fill="none" d="M417.215,947.414c-8.596-4.658-17.001-9.624-25.197-14.886c-9.563,2.578-27.459,7.669-48.943,15.028&#10;&#9;&#9;c15.521,11.729,31.851,22.434,48.886,32.035L417.215,947.414z"/>
	<path fill="none" d="M618.795,994.616l-0.036,40.575c44.958-1.396,88.216-9.641,128.773-23.723l-26.138-34.015&#10;&#9;&#9;C688.793,987.489,654.391,993.399,618.795,994.616z"/>
	<path fill="none" d="M467.324,970.168l-26.03,33.259c38.891,15.846,80.564,26.219,124.07,30.171&#10;&#9;&#9;c0.002-8.292,0.005-23.524,0.007-40.698C531.217,989.491,498.352,981.719,467.324,970.168z"/>
	<path fill="none" d="M210.19,600c0-218.086,176.794-394.879,394.879-394.879S999.948,381.914,999.948,600&#10;&#9;&#9;c0,63.772-15.138,124.002-41.985,177.325c12.505,4.406,25.52,9.255,38.005,14.349c28.491-57.87,44.529-122.93,44.529-191.674&#10;&#9;&#9;c0-240.095-195.331-435.428-435.428-435.428S169.641,359.905,169.641,600c0,66.824,15.148,130.171,42.164,186.814&#10;&#9;&#9;c12.693-5.039,25.735-9.797,38.086-14.083C224.469,720.553,210.19,661.947,210.19,600z"/>
	<path fill="none" d="M771.541,958.146l25.499,32.606c22.934-11.313,44.731-24.584,65.178-39.598&#10;&#9;&#9;c-20.954-7.265-38.827-12.441-49.379-15.322C799.575,944.055,785.79,951.511,771.541,958.146z"/>
	<path fill="#221B3F" d="M565.373,939.616c-21.851-2.538-43.082-7.134-63.488-13.607l-34.561,44.159&#10;&#9;&#9;c31.028,11.551,63.893,19.323,98.047,22.732C565.373,975.388,565.375,955.868,565.373,939.616z" style="fill: rgb(255, 255, 255);"/>
	<path fill="#221B3F" d="M686.541,932.099c-21.826,5.355-44.467,8.608-67.698,9.533l-0.048,52.984&#10;&#9;&#9;c35.596-1.217,69.998-7.127,102.598-17.162L686.541,932.099z" style="fill: rgb(255, 255, 255);"/>
	<path fill="#221B3F" d="M618.609,843.697c0.01,2.432,0.013,4.864,0.024,7.295c0.113,23.521,0.113,24.037,0.118,32.315l0.021,21.722&#10;&#9;&#9;c0.007,5.182,0.021,10.362,0.031,15.544c18.314-0.775,36.234-3.092,53.636-6.825L618.609,843.697z" style="fill: rgb(255, 255, 255);"/>
	<path fill="#221B3F" d="M565.356,905.163l-0.085-21.858c-0.036-8.149-0.039-8.789-0.044-32.181c0-2.012-0.009-4.023-0.01-6.035&#10;&#9;&#9;l-49.423,63.149c16.047,4.655,32.606,8.091,49.574,10.194C565.366,911.716,565.362,906.949,565.356,905.163z" style="fill: rgb(255, 255, 255);"/>
	<path fill="#FFFFFF" d="M618.795,994.616l0.048-52.984c23.232-0.925,45.872-4.177,67.698-9.533l34.852,45.354l26.138,34.015&#10;&#9;&#9;c3.28-1.139,6.543-2.314,9.786-3.529L627.207,839.097c-6.028-0.175-12.057-0.289-18.085-0.344&#10;&#9;&#9;c0.017,4.094,0.022,8.189,0.042,12.284c0.167,35.134,0.084,18.879,0.138,54.009c0.02,15.632,0.062,106.554,0.097,130.328&#10;&#9;&#9;c3.127-0.031,6.248-0.085,9.359-0.182L618.795,994.616z M618.772,905.03l-0.021-21.722c-0.005-8.278-0.005-8.794-0.118-32.315&#10;&#9;&#9;c-0.011-2.432-0.013-4.863-0.024-7.295l53.83,70.052c-17.403,3.733-35.322,6.049-53.636,6.825&#10;&#9;&#9;C618.792,915.392,618.778,910.212,618.772,905.03z" style="fill: rgb(44, 31, 219);"/>
	<path fill="#FFFFFF" d="M357.854,445.003c2.38-1.838,2.817-5.246,0.979-7.626c-1.838-2.38-5.246-2.817-7.626-0.979&#10;&#9;&#9;c-2.38,1.838-2.817,5.247-0.979,7.626C352.066,446.403,355.474,446.841,357.854,445.003z" style="fill: rgb(44, 31, 219);"/>
	<path fill="#FFFFFF" d="M356.153,419.299c2.38-1.838,2.817-5.246,0.979-7.626c-1.838-2.38-5.246-2.817-7.626-0.979&#10;&#9;&#9;c-2.38,1.838-2.817,5.246-0.979,7.626C350.365,420.7,353.773,421.137,356.153,419.299z" style="fill: rgb(44, 31, 219);"/>
	<path fill="#FFFFFF" d="M376.128,403.871c2.38-1.838,2.817-5.246,0.979-7.626c-1.838-2.38-5.246-2.817-7.626-0.979&#10;&#9;&#9;c-2.38,1.838-2.817,5.246-0.979,7.626S373.748,405.709,376.128,403.871z" style="fill: rgb(44, 31, 219);"/>
	<path fill="#FFFFFF" d="M371.182,420.969c-2.38,1.838-2.817,5.247-0.979,7.626c1.838,2.38,5.246,2.817,7.626,0.979&#10;&#9;&#9;c2.38-1.838,2.817-5.246,0.979-7.626C376.97,419.569,373.562,419.131,371.182,420.969z" style="fill: rgb(44, 31, 219);"/>
	<path fill="#FFFFFF" d="M362.319,468.572c2.38-1.838,2.817-5.246,0.979-7.626c-1.838-2.38-5.246-2.817-7.626-0.979&#10;&#9;&#9;c-2.38,1.838-2.818,5.246-0.979,7.626C356.531,469.972,359.939,470.41,362.319,468.572z" style="fill: rgb(44, 31, 219);"/>
	<path fill="#FFFFFF" d="M375.647,444.538c-2.38,1.838-2.817,5.246-0.979,7.626c1.838,2.38,5.246,2.817,7.626,0.979&#10;&#9;&#9;c2.38-1.838,2.817-5.246,0.979-7.626C381.435,443.138,378.027,442.7,375.647,444.538z" style="fill: rgb(44, 31, 219);"/>
	<path fill="#FFFFFF" d="M322.364,499.471c2.38-1.838,2.799-5.27,0.961-7.65c-1.819-2.356-5.246-2.817-7.626-0.979&#10;&#9;&#9;c-2.38,1.838-2.799,5.27-0.961,7.65C316.558,500.847,319.984,501.309,322.364,499.471z" style="fill: rgb(44, 31, 219);"/>
	<path fill="#FFFFFF" d="M421.763,462.954c-2.38,1.838-2.817,5.246-0.979,7.626c1.838,2.38,5.27,2.799,7.626,0.979&#10;&#9;&#9;c2.38-1.838,2.817-5.246,0.979-7.626C427.551,461.554,424.143,461.116,421.763,462.954z" style="fill: rgb(44, 31, 219);"/>
	<path fill="#FFFFFF" d="M415.597,413.681c-2.38,1.838-2.817,5.246-0.979,7.626c1.838,2.38,5.246,2.817,7.626,0.979&#10;&#9;&#9;c2.38-1.838,2.817-5.246,0.979-7.626C421.385,412.281,417.976,411.843,415.597,413.681z" style="fill: rgb(44, 31, 219);"/>
	<path fill="#FFFFFF" d="M417.298,439.385c-2.38,1.838-2.817,5.246-0.979,7.626c1.838,2.38,5.27,2.799,7.626,0.979&#10;&#9;&#9;c2.38-1.838,2.817-5.246,0.979-7.626C423.086,437.985,419.677,437.547,417.298,439.385z" style="fill: rgb(44, 31, 219);"/>
	<path fill="#FFFFFF" d="M364.02,494.276c2.38-1.838,2.818-5.246,0.979-7.626c-1.838-2.38-5.246-2.817-7.626-0.979&#10;&#9;&#9;c-2.38,1.838-2.799,5.27-0.979,7.626C358.232,495.676,361.64,496.114,364.02,494.276z" style="fill: rgb(44, 31, 219);"/>
	<path fill="#FFFFFF" d="M410.136,512.691c2.38-1.838,2.817-5.246,0.979-7.626c-1.838-2.38-5.246-2.817-7.626-0.979&#10;&#9;&#9;c-2.38,1.838-2.799,5.27-0.979,7.626C404.348,514.092,407.756,514.53,410.136,512.691z" style="fill: rgb(44, 31, 219);"/>
	<path fill="#FFFFFF" d="M400.811,600.985c2.38-1.838,2.817-5.246,0.979-7.626c-1.838-2.38-5.246-2.817-7.626-0.979&#10;&#9;&#9;c-2.38,1.838-2.817,5.246-0.979,7.626C395.023,602.385,398.431,602.823,400.811,600.985z" style="fill: rgb(44, 31, 219);"/>
	<path fill="#FFFFFF" d="M414.62,536.284c2.38-1.838,2.799-5.27,0.961-7.65c-1.82-2.356-5.246-2.818-7.626-0.979&#10;&#9;&#9;c-2.38,1.838-2.799,5.27-0.961,7.65C408.813,537.661,412.24,538.122,414.62,536.284z" style="fill: rgb(44, 31, 219);"/>
	<path fill="#FFFFFF" d="M354.695,582.569c2.38-1.838,2.817-5.246,0.979-7.626c-1.838-2.38-5.246-2.817-7.626-0.979&#10;&#9;&#9;c-2.38,1.838-2.817,5.246-0.979,7.626C348.907,583.97,352.316,584.407,354.695,582.569z" style="fill: rgb(44, 31, 219);"/>
	<path fill="#FFFFFF" d="M434.6,520.813c2.356-1.819,2.817-5.246,0.979-7.626c-1.838-2.38-5.27-2.799-7.65-0.961&#10;&#9;&#9;c-2.356,1.819-2.799,5.27-0.979,7.626C428.788,522.232,432.22,522.651,434.6,520.813z" style="fill: rgb(44, 31, 219);"/>
	<path fill="#FFFFFF" d="M430.111,497.263c2.38-1.838,2.841-5.265,1.003-7.645c-1.862-2.361-5.27-2.799-7.65-0.961&#10;&#9;&#9;c-2.356,1.819-2.817,5.246-0.979,7.626C424.323,498.663,427.755,499.083,430.111,497.263z" style="fill: rgb(44, 31, 219);"/>
	<path fill="#FFFFFF" d="M344.064,509.728c2.38-1.838,2.799-5.27,0.961-7.65c-1.819-2.356-5.27-2.799-7.626-0.979&#10;&#9;&#9;c-2.361,1.862-2.799,5.27-0.961,7.65C338.257,511.104,341.684,511.566,344.064,509.728z" style="fill: rgb(44, 31, 219);"/>
	<path fill="#FFFFFF" d="M348.529,533.297c2.38-1.838,2.817-5.246,0.979-7.626c-1.838-2.38-5.27-2.799-7.626-0.979&#10;&#9;&#9;c-2.38,1.838-2.817,5.246-0.979,7.626C342.741,534.697,346.149,535.135,348.529,533.297z" style="fill: rgb(44, 31, 219);"/>
	<path fill="#FFFFFF" d="M420.786,585.557c2.38-1.838,2.817-5.246,0.979-7.626c-1.838-2.38-5.246-2.817-7.626-0.979&#10;&#9;&#9;c-2.38,1.838-2.817,5.246-0.979,7.626C414.998,586.957,418.43,587.376,420.786,585.557z" style="fill: rgb(44, 31, 219);"/>
	<path fill="#FFFFFF" d="M416.32,561.988c2.38-1.838,2.818-5.246,0.979-7.626c-1.838-2.38-5.246-2.817-7.626-0.979&#10;&#9;&#9;c-2.38,1.838-2.817,5.246-0.979,7.626C410.533,563.388,413.941,563.826,416.32,561.988z" style="fill: rgb(44, 31, 219);"/>
	<path fill="#FFFFFF" d="M368.504,517.868c2.38-1.838,2.799-5.27,0.961-7.65c-1.819-2.355-5.246-2.817-7.626-0.979&#10;&#9;&#9;c-2.38,1.838-2.799,5.27-0.961,7.65C362.697,519.245,366.124,519.706,368.504,517.868z" style="fill: rgb(44, 31, 219);"/>
	<path fill="#FFFFFF" d="M388.46,502.416c2.38-1.838,2.817-5.246,0.979-7.626c-1.838-2.38-5.246-2.817-7.626-0.979&#10;&#9;&#9;c-2.38,1.838-2.799,5.271-0.979,7.626C382.672,503.816,386.08,504.254,388.46,502.416z" style="fill: rgb(44, 31, 219);"/>
	<path fill="#FFFFFF" d="M376.371,592.845c2.38-1.838,2.817-5.246,0.979-7.626c-1.838-2.38-5.246-2.817-7.626-0.979&#10;&#9;&#9;c-2.38,1.838-2.817,5.246-0.979,7.626C370.583,594.245,373.991,594.683,376.371,592.845z" style="fill: rgb(44, 31, 219);"/>
	<path fill="#FFFFFF" d="M397.323,454.813c-2.38,1.838-2.817,5.246-0.979,7.626s5.246,2.817,7.626,0.979&#10;&#9;&#9;c2.38-1.838,2.817-5.246,0.979-7.626C403.111,453.413,399.703,452.975,397.323,454.813z" style="fill: rgb(44, 31, 219);"/>
	<path fill="#FFFFFF" d="M383.995,478.847c2.38-1.838,2.817-5.246,0.979-7.626c-1.838-2.38-5.246-2.817-7.626-0.979&#10;&#9;&#9;c-2.38,1.838-2.818,5.246-0.98,7.626C378.207,480.248,381.615,480.685,383.995,478.847z" style="fill: rgb(44, 31, 219);"/>
	<path fill="#FFFFFF" d="M401.788,478.382c-2.38,1.838-2.817,5.247-0.979,7.626c1.838,2.38,5.246,2.817,7.626,0.979&#10;&#9;&#9;c2.38-1.838,2.817-5.246,0.979-7.626C407.576,476.982,404.168,476.544,401.788,478.382z" style="fill: rgb(44, 31, 219);"/>
	<path fill="#FFFFFF" d="M395.622,429.11c-2.38,1.838-2.817,5.246-0.979,7.626c1.838,2.38,5.246,2.817,7.626,0.979&#10;&#9;&#9;c2.38-1.838,2.817-5.246,0.979-7.626C401.41,427.709,398.002,427.272,395.622,429.11z" style="fill: rgb(44, 31, 219);"/>
	<path fill="#FFFFFF" d="M396.346,577.416c2.38-1.838,2.818-5.246,0.979-7.626c-1.838-2.38-5.246-2.818-7.626-0.979&#10;&#9;&#9;c-2.38,1.838-2.817,5.246-0.979,7.626C390.558,578.817,393.966,579.254,396.346,577.416z" style="fill: rgb(44, 31, 219);"/>
	<path fill="#FFFFFF" d="M390.179,528.144c2.38-1.838,2.799-5.27,0.979-7.626c-1.838-2.38-5.265-2.841-7.645-1.003&#10;&#9;&#9;c-2.38,1.838-2.799,5.27-0.961,7.65C384.373,529.52,387.8,529.982,390.179,528.144z" style="fill: rgb(44, 31, 219);"/>
	<path fill="#FFFFFF" d="M394.645,551.712c2.38-1.838,2.817-5.246,0.979-7.626c-1.838-2.38-5.246-2.817-7.626-0.979&#10;&#9;&#9;c-2.38,1.838-2.818,5.246-0.979,7.626C388.857,553.113,392.265,553.551,394.645,551.712z" style="fill: rgb(44, 31, 219);"/>
	<path fill="#FFFFFF" d="M437.296,423.938c-2.38,1.838-2.841,5.265-0.979,7.626c1.838,2.38,5.246,2.818,7.626,0.98&#10;&#9;&#9;c2.356-1.82,2.817-5.246,0.979-7.626C443.084,422.538,439.652,422.119,437.296,423.938z" style="fill: rgb(44, 31, 219);"/>
	<path fill="#FFFFFF" d="M374.67,567.141c2.38-1.838,2.817-5.246,0.979-7.626c-1.838-2.38-5.246-2.817-7.626-0.979&#10;&#9;&#9;c-2.38,1.838-2.818,5.246-0.98,7.626C368.882,568.541,372.291,568.979,374.67,567.141z" style="fill: rgb(44, 31, 219);"/>
	<path fill="#FFFFFF" d="M370.205,543.572c2.38-1.838,2.817-5.246,0.979-7.626c-1.838-2.38-5.246-2.817-7.626-0.979&#10;&#9;&#9;c-2.38,1.838-2.817,5.246-0.979,7.626C364.417,544.973,367.825,545.41,370.205,543.572z" style="fill: rgb(44, 31, 219);"/>
	<path fill="#FFFFFF" d="M391.157,405.541c-2.38,1.838-2.817,5.246-0.979,7.626s5.246,2.817,7.626,0.979&#10;&#9;&#9;c2.38-1.838,2.817-5.246,0.979-7.626C396.945,404.141,393.536,403.703,391.157,405.541z" style="fill: rgb(44, 31, 219);"/>
	<path fill="#FFFFFF" d="M350.23,559.001c2.38-1.838,2.817-5.246,0.979-7.626c-1.838-2.38-5.246-2.817-7.626-0.979&#10;&#9;&#9;c-2.38,1.838-2.817,5.246-0.979,7.626C344.442,560.401,347.85,560.839,350.23,559.001z" style="fill: rgb(44, 31, 219);"/>
	<path fill="#FFFFFF" d="M450.109,481.816c2.38-1.838,2.817-5.247,0.979-7.626c-1.838-2.38-5.246-2.817-7.626-0.979&#10;&#9;&#9;c-2.38,1.838-2.817,5.246-0.979,7.626C444.322,483.216,447.73,483.654,450.109,481.816z" style="fill: rgb(44, 31, 219);"/>
	<path fill="#FFFFFF" d="M324.065,525.175c2.38-1.838,2.817-5.246,0.979-7.626c-1.838-2.38-5.246-2.817-7.626-0.979&#10;&#9;&#9;c-2.38,1.838-2.817,5.246-0.979,7.626C318.277,526.575,321.709,526.995,324.065,525.175z" style="fill: rgb(44, 31, 219);"/>
	<path fill="#FFFFFF" d="M460.759,554.681c2.38-1.838,2.799-5.27,0.961-7.65c-1.819-2.356-5.246-2.817-7.626-0.979&#10;&#9;&#9;c-2.38,1.838-2.799,5.271-0.961,7.65C454.953,556.058,458.38,556.519,460.759,554.681z" style="fill: rgb(44, 31, 219);"/>
	<path fill="#FFFFFF" d="M317.88,475.878c2.38-1.838,2.817-5.246,0.979-7.626c-1.838-2.38-5.246-2.817-7.626-0.979&#10;&#9;&#9;c-2.38,1.838-2.799,5.27-0.979,7.626C312.092,477.279,315.5,477.716,317.88,475.878z" style="fill: rgb(44, 31, 219);"/>
	<path fill="#FFFFFF" d="M454.575,505.385c2.38-1.838,2.817-5.246,0.979-7.626c-1.838-2.38-5.246-2.817-7.626-0.979&#10;&#9;&#9;c-2.38,1.838-2.817,5.246-0.979,7.626C448.787,506.785,452.195,507.223,454.575,505.385z" style="fill: rgb(44, 31, 219);"/>
	<path fill="#FFFFFF" d="M476.25,515.66c2.38-1.838,2.817-5.246,0.979-7.626c-1.838-2.38-5.246-2.817-7.626-0.979&#10;&#9;&#9;c-2.38,1.838-2.817,5.246-0.979,7.626C470.462,517.06,473.871,517.498,476.25,515.66z" style="fill: rgb(44, 31, 219);"/>
	<path fill="#FFFFFF" d="M474.55,489.956c2.38-1.838,2.817-5.246,0.979-7.626c-1.838-2.38-5.246-2.817-7.626-0.979&#10;&#9;&#9;c-2.38,1.838-2.817,5.246-0.979,7.626C468.762,491.357,472.17,491.794,474.55,489.956z" style="fill: rgb(44, 31, 219);"/>
	<path fill="#FFFFFF" d="M480.716,539.229c2.38-1.838,2.817-5.246,0.979-7.626c-1.838-2.38-5.246-2.817-7.626-0.979&#10;&#9;&#9;c-2.38,1.838-2.799,5.27-0.98,7.626C474.928,540.629,478.336,541.067,480.716,539.229z" style="fill: rgb(44, 31, 219);"/>
	<path fill="#FFFFFF" d="M328.53,548.744c2.38-1.838,2.817-5.246,0.979-7.626c-1.838-2.38-5.246-2.818-7.626-0.979&#10;&#9;&#9;c-2.38,1.838-2.817,5.246-0.979,7.626C322.742,550.144,326.175,550.563,328.53,548.744z" style="fill: rgb(44, 31, 219);"/>
	<path fill="#FFFFFF" d="M737.869,915.089c29.965-12.677,57.748-29.522,82.649-49.781c-8.855-2.149-17.714-4.177-26.577-6.065&#10;&#9;&#9;c-21.346,15.594-44.676,28.622-69.543,38.62l-43.507-55.634c-4.595-0.405-9.19-0.762-13.786-1.097l119.454,154.403&#10;&#9;&#9;c0.043,0.055,0.07,0.111,0.111,0.167c3.483-1.605,6.938-3.257,10.37-4.95l-25.499-32.606L737.869,915.089z" style="fill: rgb(44, 31, 219);"/>
	<path fill="#FFFFFF" d="M470.084,466.388c2.38-1.838,2.817-5.246,0.979-7.626c-1.838-2.38-5.246-2.817-7.626-0.979&#10;&#9;&#9;c-2.38,1.838-2.817,5.246-0.979,7.626C464.296,467.788,467.704,468.226,470.084,466.388z" style="fill: rgb(44, 31, 219);"/>
	<path fill="#FFFFFF" d="M456.276,531.088c2.38-1.838,2.817-5.246,0.98-7.626c-1.838-2.38-5.246-2.817-7.626-0.979&#10;&#9;&#9;c-2.38,1.838-2.799,5.27-0.979,7.626C450.488,532.489,453.896,532.927,456.276,531.088z" style="fill: rgb(44, 31, 219);"/>
	<path fill="#FFFFFF" d="M441.762,447.507c-2.38,1.838-2.817,5.246-0.979,7.626c1.838,2.38,5.246,2.817,7.626,0.979&#10;&#9;&#9;s2.817-5.246,0.979-7.626C447.55,446.107,444.117,445.687,441.762,447.507z" style="fill: rgb(44, 31, 219);"/>
	<path fill="#FFFFFF" d="M342.344,484c2.356-1.819,2.817-5.246,0.979-7.626c-1.838-2.38-5.27-2.799-7.65-0.961&#10;&#9;&#9;c-2.356,1.819-2.817,5.246-0.979,7.626C336.556,485.4,339.965,485.838,342.344,484z" style="fill: rgb(44, 31, 219);"/>
	<path fill="#FFFFFF" d="M330.255,574.429c2.356-1.819,2.818-5.246,0.979-7.626c-1.862-2.361-5.27-2.799-7.65-0.961&#10;&#9;&#9;c-2.356,1.82-2.818,5.246-0.98,7.626C324.443,575.848,327.876,576.267,330.255,574.429z" style="fill: rgb(44, 31, 219);"/>
	<path fill="#FFFFFF" d="M436.319,546.541c2.356-1.82,2.799-5.271,0.961-7.65c-1.819-2.356-5.27-2.799-7.65-0.961&#10;&#9;&#9;c-2.337,1.843-2.799,5.27-0.961,7.65C430.489,547.936,433.94,548.379,436.319,546.541z" style="fill: rgb(44, 31, 219);"/>
	<path fill="#FFFFFF" d="M337.879,460.432c2.356-1.82,2.817-5.246,0.979-7.626c-1.838-2.38-5.27-2.799-7.65-0.961&#10;&#9;&#9;c-2.356,1.82-2.817,5.247-0.979,7.626C332.067,461.85,335.499,462.269,337.879,460.432z" style="fill: rgb(44, 31, 219);"/>
	<path fill="#FFFFFF" d="M440.785,570.11c2.356-1.819,2.817-5.246,0.979-7.626c-1.838-2.38-5.27-2.799-7.626-0.979&#10;&#9;&#9;c-2.38,1.838-2.841,5.265-0.979,7.626C434.997,571.51,438.405,571.948,440.785,570.11z" style="fill: rgb(44, 31, 219);"/>
	<path fill="#FFFFFF" d="M297.444,531.998c-2.38,1.838-2.817,5.246-0.979,7.626c1.838,2.38,5.246,2.817,7.626,0.979&#10;&#9;&#9;c2.38-1.838,2.817-5.246,0.979-7.626C303.231,530.598,299.823,530.16,297.444,531.998z" style="fill: rgb(44, 31, 219);"/>
	<path fill="#FFFFFF" d="M294.763,513.92c1.838,2.38,5.246,2.817,7.626,0.979c2.38-1.838,2.817-5.246,0.979-7.626&#10;&#9;&#9;c-1.838-2.38-5.246-2.817-7.626-0.979C293.363,508.132,292.925,511.541,294.763,513.92z" style="fill: rgb(44, 31, 219);"/>
	<path fill="#FFFFFF" d="M317.158,442.548c-1.838-2.38-5.246-2.817-7.626-0.979c-2.38,1.838-2.817,5.246-0.979,7.626&#10;&#9;&#9;c1.838,2.38,5.246,2.818,7.626,0.979S318.996,444.928,317.158,442.548z" style="fill: rgb(44, 31, 219);"/>
	<path fill="#FFFFFF" d="M296.204,465.603c2.38-1.838,2.817-5.246,0.979-7.626c-1.838-2.38-5.246-2.817-7.626-0.979&#10;&#9;&#9;c-2.38,1.838-2.799,5.27-0.979,7.626C290.417,467.003,293.825,467.441,296.204,465.603z" style="fill: rgb(44, 31, 219);"/>
	<path fill="#FFFFFF" d="M329.507,426.141c-2.356,1.819-2.817,5.246-0.979,7.626c1.838,2.38,5.27,2.799,7.626,0.979&#10;&#9;&#9;c2.38-1.838,2.841-5.265,0.979-7.626C335.295,424.74,331.887,424.303,329.507,426.141z" style="fill: rgb(44, 31, 219);"/>
	<path fill="#FFFFFF" d="M297.924,491.331c2.38-1.838,2.799-5.27,0.979-7.626c-1.838-2.38-5.265-2.842-7.645-1.004&#10;&#9;&#9;c-2.361,1.862-2.799,5.27-0.961,7.65C292.117,492.707,295.544,493.169,297.924,491.331z" style="fill: rgb(44, 31, 219);"/>
	<path fill="#FFFFFF" d="M441.294,1003.428l26.03-33.259l34.561-44.159c20.406,6.473,41.637,11.069,63.488,13.607&#10;&#9;&#9;c0.001,16.252,0,35.772-0.002,53.284c-0.002,17.174-0.005,32.406-0.007,40.698c3.188,0.29,6.384,0.549,9.591,0.769&#10;&#9;&#9;c-0.042-25.356-0.076-113.838-0.128-129.238c-0.12-35.129-0.122-18.875-0.129-54.009c0-4.011-0.015-8.023-0.019-12.034&#10;&#9;&#9;c-5.908,0.17-11.816,0.393-17.724,0.678L434.077,996.068c-0.924,1.174-2.072,2.124-3.378,2.878&#10;&#9;&#9;C434.207,1000.485,437.738,1001.979,441.294,1003.428z M565.218,845.089c0.001,2.011,0.009,4.023,0.01,6.035&#10;&#9;&#9;c0.005,23.392,0.008,24.032,0.044,32.181l0.085,21.858c0.006,1.785,0.01,6.553,0.013,13.268&#10;&#9;&#9;c-16.968-2.103-33.527-5.539-49.574-10.194L565.218,845.089z" style="fill: rgb(44, 31, 219);"/>
	<path fill="#FFFFFF" d="M400.34,984.198l110.741-141.07c-4.373,0.432-8.745,0.906-13.117,1.401l-34.167,43.534&#10;&#9;&#9;c-17.456-8.596-34.025-18.724-49.523-30.223c-8.874,1.826-17.744,3.803-26.611,5.89c19.297,15.936,40.372,29.789,62.868,41.235&#10;&#9;&#9;l-33.316,42.449l-25.254,32.177C394.736,981.155,397.528,982.693,400.34,984.198z" style="fill: rgb(44, 31, 219);"/>
	<path fill="#FFFFFF" d="M959.603,461.982c-12.402-24.41-59.184-64.427-101.941-92.208&#10;&#9;&#9;c-50.267-55.102-118.276-93.738-194.892-106.814c-17.05-25.897-43.155-42.518-72.4-42.518&#10;&#9;&#9;c-31.819,0.078-59.888,19.915-76.508,49.996c-60.601,16.792-114.496,49.875-156.638,94.238&#10;&#9;&#9;c-20.704,4.041-40.165,12.831-57.27,26.042c-28.965,22.392-47.481,54.722-52.139,91.035c-3.84,29.944,2.149,59.628,16.91,85.361&#10;&#9;&#9;c-1.038,10.826-1.588,21.793-1.588,32.887c0,35.931,5.586,70.579,15.909,103.139c6.691-2.172,13.384-4.276,20.079-6.312&#10;&#9;&#9;c-9.695-30.566-14.942-63.093-14.942-96.827c0-2.206,0.039-4.404,0.084-6.599c25.791,27.351,61.351,42.827,99.539,42.827&#10;&#9;&#9;c21.982,0,43.591-5.29,62.996-15.361l29.348,37.983c3.664-0.458,7.329-0.844,10.994-1.261l-37.836-48.969&#10;&#9;&#9;c-54.714,32.858-126.547,20.299-166.502-31.429c-43.097-55.747-32.806-135.884,22.941-178.981&#10;&#9;&#9;c55.766-43.073,135.884-32.806,178.976,22.984c39.978,51.709,33.98,124.385-11.594,169.027l49.412,63.95&#10;&#9;&#9;c3.776-0.296,7.552-0.573,11.328-0.827l-48.256-62.455c44.092-48.815,47.352-122.783,6.605-175.486&#10;&#9;&#9;c-24.911-32.254-61.996-51.366-102.47-53.117c32.533-29.496,71.127-52.416,113.664-66.66c-3.544,12.081-5.467,25.101-5.434,38.668&#10;&#9;&#9;c0.041,17.053,3.186,33.943,9.092,48.846c5.087,12.842,12.836,24.083,20.327,34.956c4.46,6.474,8.676,12.589,12.317,18.955&#10;&#9;&#9;c11.877,20.774,19.148,39.724,22.223,57.932c3.563,21.083,3.486,44.939,2.872,67.577c-0.347,12.723-0.406,26.172-0.18,42.327&#10;&#9;&#9;c0.219,15.545,0.312,31.237,0.351,46.861c3.153-0.113,6.305-0.213,9.458-0.296c-0.04-15.569-0.119-31.138-0.338-46.698&#10;&#9;&#9;c-0.196-14.003-0.207-27.937,0.176-41.935c0.609-22.446,0.728-47.357-2.999-69.416c-3.656-21.641-12.499-42.093-23.342-61.054&#10;&#9;&#9;c-10.133-17.717-24.507-33.635-32.061-52.7c-5.692-14.367-8.388-29.953-8.426-45.38c-0.142-57.524,36.998-104.245,82.946-104.359&#10;&#9;&#9;c45.953-0.114,83.323,46.423,83.465,103.947c0.046,18.544-3.766,37.376-11.971,54.066c-0.954,1.938-1.936,3.86-2.947,5.765&#10;&#9;&#9;c-17.362,32.866-41.928,61.782-48.127,99.615c-3.614,22.077-3.372,46.986-2.652,69.43c0.452,13.995,0.506,27.929,0.378,41.933&#10;&#9;&#9;c-0.14,15.485-0.141,30.977-0.104,46.471c3.152,0.024,6.305,0.044,9.457,0.098c-0.037-15.498-0.022-31.062,0.116-46.481&#10;&#9;&#9;c0.149-16.205,0.028-29.655-0.38-42.323c-0.727-22.637-0.922-46.494,2.531-67.595c4.116-25.117,17.026-46.195,30.694-68.511&#10;&#9;&#9;c5.567-9.091,11.328-18.492,16.456-28.2c1.056-1.99,2.084-3.998,3.078-6.022c8.517-17.324,12.992-37.471,12.943-58.269&#10;&#9;&#9;c-0.041-16.786-3.095-32.717-8.496-47.064c42.638,9.49,82.11,27.475,116.53,52.102c-0.492-0.029-1.026-0.101-1.491-0.101&#10;&#9;&#9;c-7.294,0-11.44,2.993-13.637,5.504l-0.19,0.217l-0.175,0.229c-26.822,34.748-53.642,69.527-80.43,104.304&#10;&#9;&#9;c-39.678,51.498-45.073,118.231-14.058,161.975l-32.449,41.263c3.859,0.186,7.717,0.371,11.576,0.602l32.866-41.792&#10;&#9;&#9;c-32.62-39.18-29.795-105.179,9.567-156.266c26.788-34.776,53.607-69.553,80.426-104.299&#10;&#9;&#9;c17.919-20.501,188.278,104.147,169.143,130.358c-26.819,34.776-53.607,69.553-80.426,104.298&#10;&#9;&#9;c-40.365,52.392-105.696,71.618-152.165,47.32l-18.602,23.657c3.701,0.372,7.402,0.786,11.103,1.2l10.281-13.076&#10;&#9;&#9;c12.681,5.38,26.498,8.101,41.189,8.101c0.003,0,0.003,0,0.005,0c42.81,0,86.062-22.961,115.687-61.415&#10;&#9;&#9;c13.486-17.471,26.962-34.954,40.439-52.437c3.879,19.907,5.934,40.457,5.934,61.481c0,34.602-5.527,67.932-15.708,99.181&#10;&#9;&#9;c6.679,2.085,13.356,4.243,20.03,6.464c10.84-33.287,16.725-68.789,16.725-105.646c0-28.681-3.569-56.54-10.251-83.178&#10;&#9;&#9;l23.409-30.368C963.356,482.079,965.851,474.28,959.603,461.982z" style="fill: rgb(44, 31, 219);"/>
	<path fill="#FFFFFF" d="M925.48,463.072c-4.343-3.341-10.661-2.491-14.032,1.853l-94.822,123.038&#10;&#9;&#9;c-3.372,4.374-2.582,10.661,1.761,14.032c4.374,3.341,10.691,2.521,14.062-1.853l94.823-123.038&#10;&#9;&#9;C930.643,472.73,929.854,466.412,925.48,463.072z" style="fill: rgb(44, 31, 219);"/>
	<path fill="#FFFFFF" d="M873.513,433.428L746.952,597.621c-3.372,4.374-2.582,10.691,1.761,14.062&#10;&#9;&#9;c4.343,3.341,10.661,2.491,14.032-1.883l126.562-164.162c3.371-4.374,2.582-10.721-1.762-14.063&#10;&#9;&#9;C883.172,428.234,876.884,429.055,873.513,433.428z" style="fill: rgb(44, 31, 219);"/>
	<path fill="#FFFFFF" d="M707.468,580.612c4.343,3.372,10.661,2.521,14.032-1.853l126.561-164.193&#10;&#9;&#9;c3.371-4.374,2.582-10.691-1.762-14.032c-4.374-3.341-10.691-2.491-14.062,1.853L705.676,566.58&#10;&#9;&#9;C702.335,570.954,703.124,577.271,707.468,580.612z" style="fill: rgb(44, 31, 219);"/>
	<path fill="#FFFFFF" d="M805.236,371.134c-4.344-3.341-10.661-2.521-14.032,1.883l-94.853,123.008&#10;&#9;&#9;c-3.341,4.374-2.551,10.691,1.792,14.032c4.343,3.341,10.661,2.521,14.032-1.853l94.822-123.038&#10;&#9;&#9;C810.369,380.793,809.579,374.506,805.236,371.134z" style="fill: rgb(44, 31, 219);"/>
	<path fill="#FFFFFF" d="M378.623,913.967l-88.667-24.609c-1.521-0.363-2.99-0.928-4.343-1.739&#10;&#9;&#9;c-3.761-2.258-6.289-6.05-6.937-10.405l-12.883-87.254c-25.313,8.555-54.944,19.493-78.253,30.776&#10;&#9;&#9;c-51.147,24.756-90.275,58.582-109.197,76.713l80.317,29.348c5.768,2.102,9.329,8.047,8.458,14.133l-11.505,80.939&#10;&#9;&#9;c21.969-15.279,59.386-40.082,97.788-60.008C299.852,937.753,352.904,921.241,378.623,913.967z" style="fill: rgb(44, 31, 219);"/>
	<path fill="#FFFFFF" d="M1041.836,928.651l80.019-29.612c-18.716-18.015-57.495-51.684-108.247-76.237&#10;&#9;&#9;c-23.269-11.256-52.909-22.144-78.14-30.625l-12.557,85.027c-0.642,4.355-3.168,8.149-6.929,10.41&#10;&#9;&#9;c-1.573,0.945-3.3,1.578-5.101,1.911l-88.715,26.712c25.053,6.997,78.704,23.462,125.489,47.742&#10;&#9;&#9;c38.073,19.757,75.189,44.405,96.971,59.587l-11.184-80.906C1032.607,936.538,1036.057,930.786,1041.836,928.651z" style="fill: rgb(44, 31, 219);"/>
	<path fill="#221B3F" d="M1146.373,893.327c-12.615-13.149-58.795-58.482-123.459-89.764c-2.462-1.191-5.004-2.376-7.588-3.556&#10;&#9;&#9;c29.582-60.433,46.218-128.31,46.218-200.007c0-251.701-204.773-456.474-456.474-456.474S148.595,348.299,148.595,600&#10;&#9;&#9;c0,69.688,15.721,135.765,43.765,194.909c-4.898,2.147-9.647,4.322-14.171,6.512c-65.175,31.547-111.79,77.098-124.522,90.306&#10;&#9;&#9;c-3.08,3.193-4.326,7.682-3.33,12.006c0.997,4.326,4.085,7.823,8.262,9.349l86.319,31.542l-13.295,93.528&#10;&#9;&#9;c-0.742,5.215,1.696,10.338,6.21,13.051c2.086,1.254,4.416,1.875,6.742,1.875c2.708,0,5.406-0.843,7.695-2.51&#10;&#9;&#9;c13.529-9.848,61.524-43.977,111.019-69.66c18.456-9.578,38.027-17.916,56.414-24.912&#10;&#9;&#9;c78.217,62.825,177.47,100.479,285.368,100.479c105.736,0,203.183-36.147,280.654-96.719c17.105,6.61,35.083,14.37,52.087,23.194&#10;&#9;&#9;c49.04,25.448,96.626,59.361,110.043,69.149c2.284,1.667,4.976,2.507,7.679,2.507c2.307,0,4.622-0.614,6.693-1.852&#10;&#9;&#9;c4.499-2.693,6.939-7.787,6.217-12.972l-12.913-93.412l85.957-31.806c4.136-1.531,7.194-5.01,8.18-9.303&#10;&#9;&#9;C1150.653,900.97,1149.422,896.513,1146.373,893.327z M947.655,963.979c-46.785-24.28-100.436-40.745-125.489-47.742l88.715-26.712&#10;&#9;&#9;c1.801-0.334,3.529-0.966,5.101-1.911c3.761-2.261,6.287-6.055,6.929-10.41l12.557-85.027c25.232,8.481,54.872,19.369,78.14,30.625&#10;&#9;&#9;c50.751,24.554,89.53,58.222,108.247,76.237l-80.019,29.612c-5.778,2.135-9.229,7.887-8.394,14.01l11.184,80.906&#10;&#9;&#9;C1022.844,1008.385,985.728,983.736,947.655,963.979z M434.077,996.068l122.878-156.303c5.908-0.285,11.816-0.508,17.724-0.678&#10;&#9;&#9;c0.003,4.011,0.018,8.023,0.019,12.034c0.006,35.134,0.008,18.879,0.129,54.009c0.052,15.4,0.086,103.882,0.128,129.238&#10;&#9;&#9;c-3.207-0.22-6.403-0.48-9.591-0.769c-43.506-3.952-85.179-14.326-124.07-30.171c-3.555-1.449-7.087-2.943-10.595-4.482&#10;&#9;&#9;C432.006,998.192,433.154,997.242,434.077,996.068z M155.614,1021.868l11.505-80.939c0.871-6.086-2.69-12.031-8.458-14.133&#10;&#9;&#9;l-80.317-29.348c18.922-18.131,58.05-51.956,109.197-76.713c23.309-11.283,52.94-22.22,78.253-30.776l12.883,87.254&#10;&#9;&#9;c0.647,4.355,3.176,8.147,6.937,10.405c1.353,0.811,2.822,1.376,4.343,1.739l88.667,24.609&#10;&#9;&#9;c-25.719,7.274-78.771,23.787-125.222,47.893C215,981.786,177.583,1006.589,155.614,1021.868z M947.003,600&#10;&#9;&#9;c0,36.857-5.885,72.359-16.725,105.646c-6.674-2.221-13.35-4.379-20.03-6.464c10.18-31.249,15.708-64.579,15.708-99.181&#10;&#9;&#9;c0-21.024-2.055-41.575-5.934-61.481c-13.477,17.483-26.953,34.965-40.439,52.437c-29.625,38.454-72.877,61.415-115.687,61.415&#10;&#9;&#9;c-0.003,0-0.003,0-0.005,0c-14.691,0-28.508-2.721-41.189-8.101l-10.281,13.076c-3.701-0.414-7.401-0.827-11.103-1.2l18.602-23.657&#10;&#9;&#9;c46.47,24.298,111.801,5.072,152.165-47.32c26.819-34.746,53.607-69.522,80.426-104.298&#10;&#9;&#9;c19.135-26.211-151.224-150.859-169.143-130.358c-26.819,34.746-53.638,69.522-80.426,104.299&#10;&#9;&#9;c-39.362,51.086-42.187,117.085-9.567,156.266l-32.866,41.792c-3.858-0.231-7.717-0.416-11.576-0.602l32.449-41.263&#10;&#9;&#9;c-31.015-43.744-25.62-110.477,14.058-161.975c26.789-34.778,53.608-69.556,80.43-104.304l0.175-0.229l0.19-0.217&#10;&#9;&#9;c2.197-2.511,6.343-5.504,13.637-5.504c0.465,0,0.998,0.073,1.491,0.101c-34.42-24.627-73.892-42.612-116.53-52.102&#10;&#9;&#9;c5.401,14.347,8.454,30.277,8.496,47.064c0.049,20.797-4.427,40.945-12.943,58.269c-0.994,2.025-2.022,4.032-3.078,6.022&#10;&#9;&#9;c-5.128,9.709-10.888,19.109-16.456,28.2c-13.668,22.316-26.578,43.393-30.694,68.511c-3.453,21.101-3.258,44.958-2.531,67.595&#10;&#9;&#9;c0.409,12.669,0.529,26.118,0.38,42.323c-0.139,15.419-0.154,30.983-0.116,46.481c-3.152-0.054-6.304-0.074-9.457-0.098&#10;&#9;&#9;c-0.037-15.493-0.035-30.986,0.104-46.471c0.127-14.004,0.074-27.938-0.378-41.933c-0.72-22.443-0.962-47.353,2.652-69.43&#10;&#9;&#9;c6.199-37.833,30.765-66.749,48.127-99.615c1.011-1.905,1.994-3.827,2.947-5.765c8.205-16.691,12.017-35.522,11.971-54.066&#10;&#9;&#9;c-0.142-57.524-37.512-104.061-83.465-103.947c-45.948,0.114-83.088,46.834-82.946,104.359c0.038,15.427,2.733,31.013,8.426,45.38&#10;&#9;&#9;c7.554,19.064,21.928,34.982,32.061,52.7c10.842,18.961,19.686,39.413,23.342,61.054c3.727,22.059,3.608,46.969,2.999,69.416&#10;&#9;&#9;c-0.383,13.997-0.372,27.932-0.176,41.935c0.219,15.56,0.298,31.128,0.338,46.698c-3.153,0.083-6.305,0.183-9.458,0.296&#10;&#9;&#9;c-0.039-15.624-0.132-31.316-0.351-46.861c-0.226-16.155-0.167-29.604,0.18-42.327c0.614-22.638,0.691-46.494-2.872-67.577&#10;&#9;&#9;c-3.075-18.208-10.346-37.158-22.223-57.932c-3.641-6.366-7.857-12.481-12.317-18.955c-7.492-10.873-15.24-22.114-20.327-34.956&#10;&#9;&#9;c-5.907-14.904-9.051-31.793-9.092-48.846c-0.033-13.567,1.891-26.587,5.434-38.668c-42.537,14.244-81.131,37.164-113.664,66.66&#10;&#9;&#9;c40.473,1.751,77.559,20.863,102.47,53.117c40.747,52.703,37.487,126.67-6.605,175.486l48.256,62.455&#10;&#9;&#9;c-3.776,0.253-7.552,0.531-11.328,0.827l-49.412-63.95c45.574-44.642,51.573-117.318,11.594-169.027&#10;&#9;&#9;c-43.092-55.79-123.21-66.057-178.976-22.984c-55.747,43.097-66.038,123.234-22.941,178.981&#10;&#9;&#9;c39.954,51.728,111.788,64.287,166.502,31.429l37.836,48.969c-3.665,0.417-7.329,0.803-10.994,1.261l-29.348-37.983&#10;&#9;&#9;c-19.405,10.071-41.014,15.361-62.996,15.361c-38.188,0-73.748-15.476-99.539-42.827c-0.044,2.196-0.084,4.393-0.084,6.599&#10;&#9;&#9;c0,33.733,5.247,66.261,14.942,96.827c-6.696,2.036-13.389,4.14-20.079,6.312c-10.323-32.56-15.909-67.208-15.909-103.139&#10;&#9;&#9;c0-11.094,0.55-22.06,1.588-32.887c-14.761-25.732-20.75-55.417-16.91-85.361c4.658-36.313,23.174-68.643,52.139-91.035&#10;&#9;&#9;c17.105-13.211,36.566-22.001,57.27-26.042c42.142-44.362,96.037-77.446,156.638-94.238c16.62-30.08,44.689-49.917,76.508-49.996&#10;&#9;&#9;c29.245,0,55.35,16.621,72.4,42.518c76.616,13.076,144.625,51.712,194.892,106.814c42.757,27.781,89.539,67.798,101.941,92.208&#10;&#9;&#9;c6.248,12.299,3.754,20.097,0.557,24.473l-23.409,30.368C943.434,543.46,947.003,571.319,947.003,600z M299.885,864.635&#10;&#9;&#9;l-20.332-137.707c213.244-70.721,429.442-70.703,642.485-0.003L901.703,864.63C702.055,799.578,499.738,799.547,299.885,864.635z&#10;&#9;&#9; M927.272,477.104L832.45,600.142c-3.371,4.374-9.689,5.194-14.062,1.853c-4.343-3.372-5.133-9.658-1.761-14.032l94.822-123.038&#10;&#9;&#9;c3.371-4.343,9.689-5.194,14.032-1.853C929.854,466.412,930.643,472.73,927.272,477.104z M887.545,431.575&#10;&#9;&#9;c4.343,3.341,5.133,9.689,1.762,14.063L762.745,609.8c-3.371,4.374-9.689,5.224-14.032,1.883&#10;&#9;&#9;c-4.343-3.371-5.133-9.689-1.761-14.062l126.561-164.193C876.884,429.055,883.172,428.234,887.545,431.575z M832.237,402.388&#10;&#9;&#9;c3.371-4.343,9.689-5.194,14.062-1.853c4.343,3.341,5.133,9.658,1.762,14.032L721.5,578.76c-3.371,4.374-9.689,5.224-14.032,1.853&#10;&#9;&#9;c-4.343-3.341-5.133-9.658-1.792-14.032L832.237,402.388z M806.998,385.166l-94.822,123.038c-3.371,4.374-9.689,5.193-14.032,1.853&#10;&#9;&#9;c-4.343-3.341-5.133-9.658-1.792-14.032l94.853-123.008c3.371-4.404,9.689-5.224,14.032-1.883&#10;&#9;&#9;C809.579,374.506,810.369,380.793,806.998,385.166z M288.578,464.624c-1.819-2.356-1.4-5.788,0.979-7.626&#10;&#9;&#9;c2.38-1.838,5.788-1.4,7.626,0.979c1.838,2.38,1.401,5.788-0.979,7.626C293.825,467.441,290.417,467.003,288.578,464.624z&#10;&#9;&#9; M377.829,429.575c-2.38,1.838-5.788,1.401-7.626-0.979c-1.838-2.38-1.401-5.788,0.979-7.626c2.38-1.838,5.788-1.4,7.626,0.979&#10;&#9;&#9;C380.646,424.328,380.208,427.737,377.829,429.575z M383.273,445.517c1.838,2.38,1.4,5.788-0.979,7.626&#10;&#9;&#9;c-2.38,1.838-5.788,1.401-7.626-0.979c-1.838-2.38-1.4-5.788,0.979-7.626C378.027,442.7,381.435,443.138,383.273,445.517z&#10;&#9;&#9; M368.502,402.891c-1.838-2.38-1.4-5.788,0.979-7.626c2.38-1.838,5.788-1.4,7.626,0.979c1.838,2.38,1.401,5.788-0.979,7.626&#10;&#9;&#9;C373.748,405.709,370.34,405.271,368.502,402.891z M351.207,436.398c2.38-1.838,5.788-1.4,7.626,0.979&#10;&#9;&#9;c1.838,2.38,1.4,5.788-0.979,7.626c-2.38,1.838-5.788,1.4-7.626-0.979C348.39,441.644,348.827,438.236,351.207,436.398z&#10;&#9;&#9; M348.527,418.32c-1.838-2.38-1.4-5.788,0.979-7.626c2.38-1.838,5.788-1.4,7.626,0.979c1.838,2.38,1.401,5.788-0.979,7.626&#10;&#9;&#9;C353.773,421.137,350.365,420.7,348.527,418.32z M355.672,459.966c2.38-1.838,5.788-1.4,7.626,0.979&#10;&#9;&#9;c1.838,2.38,1.4,5.788-0.979,7.626c-2.38,1.838-5.788,1.401-7.626-0.979C352.855,465.213,353.293,461.805,355.672,459.966z&#10;&#9;&#9; M337.133,427.12c1.862,2.361,1.4,5.788-0.979,7.626c-2.356,1.819-5.788,1.4-7.626-0.979c-1.838-2.38-1.376-5.806,0.979-7.626&#10;&#9;&#9;C331.887,424.303,335.295,424.74,337.133,427.12z M316.179,450.175c-2.38,1.838-5.788,1.4-7.626-0.979&#10;&#9;&#9;c-1.838-2.38-1.4-5.788,0.979-7.626c2.38-1.838,5.788-1.4,7.626,0.979C318.996,444.928,318.559,448.337,316.179,450.175z&#10;&#9;&#9; M291.259,482.701c2.38-1.838,5.806-1.376,7.645,1.004c1.819,2.355,1.4,5.788-0.979,7.626c-2.38,1.838-5.807,1.376-7.626-0.979&#10;&#9;&#9;C288.46,487.972,288.898,484.564,291.259,482.701z M304.09,540.603c-2.38,1.838-5.788,1.4-7.626-0.979&#10;&#9;&#9;c-1.838-2.38-1.4-5.788,0.979-7.626s5.788-1.4,7.626,0.979C306.907,535.357,306.47,538.765,304.09,540.603z M303.368,507.274&#10;&#9;&#9;c1.838,2.38,1.4,5.788-0.979,7.626c-2.38,1.838-5.788,1.4-7.626-0.979c-1.838-2.38-1.4-5.788,0.979-7.626&#10;&#9;&#9;C298.122,504.456,301.53,504.894,303.368,507.274z M311.234,467.273c2.38-1.838,5.788-1.4,7.626,0.979&#10;&#9;&#9;c1.838,2.38,1.4,5.788-0.979,7.626s-5.788,1.401-7.626-0.979C308.435,472.543,308.854,469.111,311.234,467.273z M315.699,490.842&#10;&#9;&#9;c2.38-1.838,5.806-1.376,7.626,0.979c1.838,2.38,1.419,5.812-0.961,7.65c-2.38,1.838-5.806,1.376-7.626-0.979&#10;&#9;&#9;C312.9,496.112,313.319,492.68,315.699,490.842z M317.418,516.57c2.38-1.838,5.788-1.4,7.626,0.979&#10;&#9;&#9;c1.838,2.38,1.4,5.788-0.979,7.626c-2.356,1.82-5.788,1.4-7.626-0.979C314.601,521.816,315.039,518.408,317.418,516.57z&#10;&#9;&#9; M321.884,540.138c2.38-1.838,5.788-1.4,7.626,0.979c1.838,2.38,1.4,5.788-0.979,7.626c-2.356,1.819-5.788,1.401-7.626-0.979&#10;&#9;&#9;C319.066,545.385,319.504,541.976,321.884,540.138z M323.585,565.842c2.38-1.838,5.788-1.4,7.65,0.961&#10;&#9;&#9;c1.838,2.38,1.376,5.806-0.979,7.626c-2.38,1.838-5.812,1.419-7.65-0.961C320.767,571.089,321.229,567.662,323.585,565.842z&#10;&#9;&#9; M330.229,459.471c-1.838-2.38-1.376-5.807,0.979-7.626c2.38-1.838,5.812-1.419,7.65,0.961c1.838,2.38,1.376,5.806-0.979,7.626&#10;&#9;&#9;C335.499,462.269,332.067,461.85,330.229,459.471z M335.674,475.413c2.38-1.838,5.812-1.419,7.65,0.961&#10;&#9;&#9;c1.838,2.38,1.376,5.806-0.979,7.626c-2.38,1.838-5.788,1.4-7.65-0.961C332.856,480.66,333.318,477.233,335.674,475.413z&#10;&#9;&#9; M337.398,501.099c2.356-1.82,5.807-1.376,7.626,0.979c1.838,2.38,1.419,5.812-0.961,7.65c-2.38,1.838-5.806,1.376-7.626-0.979&#10;&#9;&#9;C334.6,506.369,335.037,502.961,337.398,501.099z M341.882,524.691c2.356-1.819,5.788-1.4,7.626,0.979&#10;&#9;&#9;c1.838,2.38,1.4,5.788-0.979,7.626c-2.38,1.838-5.788,1.401-7.626-0.979C339.065,529.938,339.503,526.529,341.882,524.691z&#10;&#9;&#9; M343.583,550.395c2.38-1.838,5.788-1.401,7.626,0.979c1.838,2.38,1.4,5.788-0.979,7.626c-2.38,1.838-5.788,1.4-7.626-0.979&#10;&#9;&#9;C340.766,555.642,341.204,552.233,343.583,550.395z M348.049,573.964c2.38-1.838,5.788-1.4,7.626,0.979&#10;&#9;&#9;c1.838,2.38,1.401,5.788-0.979,7.626c-2.38,1.838-5.788,1.4-7.626-0.979C345.231,579.21,345.669,575.802,348.049,573.964z&#10;&#9;&#9; M356.394,493.296c-1.819-2.356-1.4-5.788,0.979-7.626c2.38-1.838,5.788-1.401,7.626,0.979c1.838,2.38,1.401,5.788-0.979,7.626&#10;&#9;&#9;C361.64,496.114,358.232,495.676,356.394,493.296z M361.839,509.239c2.38-1.838,5.807-1.376,7.626,0.979&#10;&#9;&#9;c1.838,2.38,1.419,5.812-0.961,7.65c-2.38,1.838-5.807,1.376-7.626-0.979C359.04,514.509,359.459,511.077,361.839,509.239z&#10;&#9;&#9; M363.558,534.967c2.38-1.838,5.788-1.4,7.626,0.979c1.838,2.38,1.4,5.788-0.979,7.626c-2.38,1.838-5.788,1.4-7.626-0.979&#10;&#9;&#9;C360.741,540.213,361.178,536.805,363.558,534.967z M368.023,558.536c2.38-1.838,5.788-1.4,7.626,0.979&#10;&#9;&#9;c1.838,2.38,1.401,5.788-0.979,7.626c-2.38,1.838-5.788,1.4-7.626-0.979C365.206,563.782,365.644,560.374,368.023,558.536z&#10;&#9;&#9; M369.724,584.239c2.38-1.838,5.788-1.4,7.626,0.979c1.838,2.38,1.4,5.788-0.979,7.626s-5.788,1.4-7.626-0.979&#10;&#9;&#9;C366.907,589.486,367.345,586.078,369.724,584.239z M376.369,477.868c-1.838-2.38-1.4-5.788,0.98-7.626&#10;&#9;&#9;c2.38-1.838,5.788-1.4,7.626,0.979c1.838,2.38,1.401,5.788-0.979,7.626C381.615,480.685,378.207,480.248,376.369,477.868z&#10;&#9;&#9; M381.813,493.81c2.38-1.838,5.788-1.4,7.626,0.979c1.838,2.38,1.4,5.788-0.979,7.626c-2.38,1.838-5.788,1.4-7.626-0.979&#10;&#9;&#9;C379.015,499.081,379.434,495.649,381.813,493.81z M403.97,463.419c-2.38,1.838-5.788,1.4-7.626-0.979s-1.4-5.788,0.979-7.626&#10;&#9;&#9;c2.38-1.838,5.788-1.4,7.626,0.979C406.787,458.173,406.349,461.581,403.97,463.419z M409.414,479.362&#10;&#9;&#9;c1.838,2.38,1.4,5.788-0.979,7.626c-2.38,1.838-5.788,1.401-7.626-0.979c-1.838-2.38-1.4-5.788,0.979-7.626&#10;&#9;&#9;C404.168,476.544,407.576,476.982,409.414,479.362z M402.269,437.715c-2.38,1.838-5.788,1.4-7.626-0.979&#10;&#9;&#9;c-1.838-2.38-1.4-5.788,0.979-7.626c2.38-1.838,5.788-1.4,7.626,0.979C405.086,432.469,404.648,435.877,402.269,437.715z&#10;&#9;&#9; M397.803,414.146c-2.38,1.838-5.788,1.401-7.626-0.979s-1.401-5.788,0.979-7.626c2.38-1.838,5.788-1.4,7.626,0.979&#10;&#9;&#9;C400.621,408.9,400.183,412.308,397.803,414.146z M383.514,519.515c2.38-1.838,5.807-1.376,7.645,1.003&#10;&#9;&#9;c1.819,2.356,1.4,5.788-0.979,7.626c-2.38,1.838-5.806,1.376-7.626-0.979C380.716,524.785,381.135,521.353,383.514,519.515z&#10;&#9;&#9; M387.998,543.107c2.38-1.838,5.788-1.4,7.626,0.979c1.838,2.38,1.401,5.788-0.979,7.626c-2.38,1.838-5.788,1.401-7.626-0.979&#10;&#9;&#9;C385.181,548.354,385.619,544.945,387.998,543.107z M389.699,568.811c2.38-1.838,5.788-1.4,7.626,0.979&#10;&#9;&#9;c1.838,2.38,1.4,5.788-0.979,7.626c-2.38,1.838-5.788,1.4-7.626-0.979C386.882,574.057,387.319,570.649,389.699,568.811z&#10;&#9;&#9; M394.164,592.38c2.38-1.838,5.788-1.4,7.626,0.979c1.838,2.38,1.4,5.788-0.979,7.626c-2.38,1.838-5.788,1.401-7.626-0.979&#10;&#9;&#9;C391.347,597.626,391.785,594.218,394.164,592.38z M402.51,511.712c-1.819-2.355-1.4-5.788,0.979-7.626&#10;&#9;&#9;c2.38-1.838,5.788-1.4,7.626,0.979c1.838,2.38,1.4,5.788-0.979,7.626C407.756,514.53,404.348,514.092,402.51,511.712z&#10;&#9;&#9; M407.954,527.655c2.38-1.838,5.806-1.376,7.626,0.979c1.838,2.38,1.419,5.812-0.961,7.65s-5.807,1.376-7.626-0.979&#10;&#9;&#9;C405.155,532.925,405.575,529.493,407.954,527.655z M423.944,447.99c-2.356,1.82-5.788,1.401-7.626-0.979&#10;&#9;&#9;c-1.838-2.38-1.4-5.788,0.979-7.626c2.38-1.838,5.788-1.4,7.626,0.979C426.762,442.744,426.324,446.152,423.944,447.99z&#10;&#9;&#9; M429.389,463.933c1.838,2.38,1.4,5.788-0.979,7.626c-2.355,1.819-5.788,1.4-7.626-0.979c-1.838-2.38-1.401-5.788,0.979-7.626&#10;&#9;&#9;C424.143,461.116,427.551,461.554,429.389,463.933z M422.243,422.286c-2.38,1.838-5.788,1.4-7.626-0.979&#10;&#9;&#9;c-1.838-2.38-1.4-5.788,0.979-7.626c2.38-1.838,5.788-1.4,7.626,0.979C425.061,417.04,424.623,420.448,422.243,422.286z&#10;&#9;&#9; M409.674,553.383c2.38-1.838,5.788-1.4,7.626,0.979c1.838,2.38,1.4,5.788-0.979,7.626c-2.38,1.838-5.788,1.4-7.626-0.979&#10;&#9;&#9;C406.857,558.629,407.294,555.221,409.674,553.383z M414.139,576.951c2.38-1.838,5.788-1.4,7.626,0.979&#10;&#9;&#9;c1.838,2.38,1.4,5.788-0.979,7.626c-2.356,1.819-5.788,1.4-7.626-0.979C411.322,582.198,411.76,578.789,414.139,576.951z&#10;&#9;&#9; M422.485,496.284c-1.838-2.38-1.376-5.806,0.979-7.626c2.38-1.838,5.788-1.4,7.65,0.961c1.838,2.38,1.376,5.806-1.003,7.645&#10;&#9;&#9;C427.755,499.083,424.323,498.663,422.485,496.284z M427.929,512.226c2.38-1.838,5.812-1.419,7.65,0.961&#10;&#9;&#9;c1.838,2.38,1.376,5.806-0.979,7.626c-2.38,1.838-5.812,1.419-7.65-0.961C425.13,517.497,425.574,514.046,427.929,512.226z&#10;&#9;&#9; M443.943,432.544c-2.38,1.838-5.788,1.4-7.626-0.98c-1.862-2.361-1.4-5.788,0.979-7.626c2.356-1.82,5.788-1.401,7.626,0.979&#10;&#9;&#9;C446.761,427.297,446.299,430.724,443.943,432.544z M449.388,448.486c1.838,2.38,1.4,5.788-0.979,7.626s-5.788,1.401-7.626-0.979&#10;&#9;&#9;c-1.838-2.38-1.4-5.788,0.979-7.626C444.117,445.687,447.55,446.107,449.388,448.486z M429.63,537.93&#10;&#9;&#9;c2.38-1.838,5.831-1.395,7.65,0.961c1.838,2.38,1.395,5.83-0.961,7.65c-2.38,1.838-5.831,1.395-7.65-0.961&#10;&#9;&#9;C426.831,543.201,427.293,539.774,429.63,537.93z M434.138,561.504c2.356-1.819,5.788-1.4,7.626,0.979&#10;&#9;&#9;c1.838,2.38,1.376,5.807-0.979,7.626c-2.38,1.838-5.788,1.4-7.626-0.979C431.297,566.769,431.758,563.343,434.138,561.504z&#10;&#9;&#9; M442.483,480.837c-1.838-2.38-1.4-5.788,0.979-7.626c2.38-1.838,5.788-1.401,7.626,0.979c1.838,2.38,1.401,5.788-0.979,7.626&#10;&#9;&#9;C447.73,483.654,444.322,483.216,442.483,480.837z M447.928,496.779c2.38-1.838,5.788-1.4,7.626,0.979&#10;&#9;&#9;c1.838,2.38,1.4,5.788-0.979,7.626c-2.38,1.838-5.788,1.4-7.626-0.979C445.111,502.026,445.548,498.617,447.928,496.779z&#10;&#9;&#9; M449.629,522.483c2.38-1.838,5.788-1.4,7.626,0.979c1.838,2.38,1.4,5.788-0.98,7.626c-2.38,1.838-5.788,1.4-7.626-0.979&#10;&#9;&#9;C446.83,527.754,447.249,524.321,449.629,522.483z M454.094,546.052c2.38-1.838,5.806-1.376,7.626,0.979&#10;&#9;&#9;c1.838,2.38,1.419,5.812-0.961,7.65c-2.38,1.838-5.806,1.376-7.626-0.979C451.295,551.322,451.715,547.89,454.094,546.052z&#10;&#9;&#9; M462.458,465.408c-1.838-2.38-1.4-5.788,0.979-7.626c2.38-1.838,5.788-1.4,7.626,0.979c1.838,2.38,1.401,5.788-0.979,7.626&#10;&#9;&#9;C467.704,468.226,464.296,467.788,462.458,465.408z M467.903,481.351c2.38-1.838,5.788-1.4,7.626,0.979&#10;&#9;&#9;c1.838,2.38,1.4,5.788-0.979,7.626c-2.38,1.838-5.788,1.401-7.626-0.979C465.085,486.597,465.523,483.189,467.903,481.351z&#10;&#9;&#9; M469.604,507.055c2.38-1.838,5.788-1.401,7.626,0.979c1.838,2.38,1.4,5.788-0.979,7.626c-2.38,1.838-5.788,1.4-7.626-0.979&#10;&#9;&#9;C466.786,512.301,467.224,508.893,469.604,507.055z M474.069,530.624c2.38-1.838,5.788-1.4,7.626,0.979&#10;&#9;&#9;c1.838,2.38,1.401,5.788-0.979,7.626c-2.38,1.838-5.788,1.4-7.626-0.979C471.27,535.894,471.689,532.462,474.069,530.624z&#10;&#9;&#9; M609.399,1035.373c-0.035-23.774-0.077-114.696-0.097-130.328c-0.054-35.13,0.029-18.875-0.138-54.009&#10;&#9;&#9;c-0.019-4.094-0.025-8.189-0.042-12.284c6.029,0.055,12.057,0.169,18.085,0.344l130.111,168.843&#10;&#9;&#9;c-3.244,1.215-6.506,2.39-9.786,3.529c-40.557,14.082-83.815,22.327-128.773,23.723&#10;&#9;&#9;C615.647,1035.288,612.526,1035.342,609.399,1035.373z M169.641,600c0-240.095,195.331-435.428,435.428-435.428&#10;&#9;&#9;S1040.497,359.905,1040.497,600c0,68.744-16.037,133.804-44.529,191.674c-12.485-5.094-25.5-9.943-38.005-14.349&#10;&#9;&#9;C984.81,724.002,999.948,663.772,999.948,600c0-218.086-176.793-394.879-394.879-394.879S210.19,381.914,210.19,600&#10;&#9;&#9;c0,61.947,14.279,120.553,39.702,172.732c-12.352,4.286-25.393,9.043-38.086,14.083C184.79,730.171,169.641,666.824,169.641,600z&#10;&#9;&#9; M392.018,932.528c8.196,5.262,16.601,10.228,25.197,14.886l33.316-42.449c-22.496-11.446-43.571-25.3-62.868-41.235&#10;&#9;&#9;c8.867-2.087,17.737-4.064,26.611-5.89c15.498,11.498,32.067,21.627,49.523,30.223l34.167-43.534&#10;&#9;&#9;c4.372-0.495,8.744-0.969,13.117-1.401L400.34,984.198c-2.812-1.505-5.604-3.043-8.379-4.607&#10;&#9;&#9;c-17.035-9.601-33.366-20.306-48.886-32.035C364.559,940.197,382.455,935.106,392.018,932.528z M797.04,990.751&#10;&#9;&#9;c-3.432,1.693-6.888,3.346-10.37,4.95c-0.041-0.055-0.068-0.112-0.111-0.167L667.105,841.132c4.596,0.335,9.191,0.692,13.786,1.097&#10;&#9;&#9;l43.507,55.634c24.867-9.998,48.197-23.026,69.543-38.62c8.862,1.889,17.721,3.916,26.577,6.065&#10;&#9;&#9;c-24.9,20.259-52.684,37.104-82.649,49.781l33.672,43.056c14.249-6.634,28.034-14.091,41.298-22.314&#10;&#9;&#9;c10.552,2.881,28.425,8.057,49.379,15.322C841.771,966.168,819.974,979.439,797.04,990.751z" style="fill: rgb(255, 255, 255);"/>
	<path fill="#FFFFFF" d="M567.502,767.095c3.439-0.106,6.854-0.952,9.895-2.565c5.199-2.756,9.328-7.612,10.845-13.297&#10;&#9;&#9;c2.641-9.898-3.603-21.127-13.191-24.735c-9.012-3.392-20.848-0.112-26.636,7.719c-5.859,7.927-4.168,20.139,2.757,26.844&#10;&#9;&#9;C555.471,765.224,561.524,767.279,567.502,767.095z" style="fill: rgb(44, 31, 219);"/>
	<path fill="#FFFFFF" d="M469.407,734.708c-8.984-2.563-20.099,1.204-25.391,9.017c-5.298,7.822-3.935,19.252,2.651,25.891&#10;&#9;&#9;c4.85,4.889,12.086,7.008,18.912,6.131c2.487-0.319,4.919-1.036,7.161-2.162c6.58-3.303,11.493-10,12.076-17.339&#10;&#9;&#9;C485.573,746.716,478.6,737.331,469.407,734.708z" style="fill: rgb(44, 31, 219);"/>
	<path fill="#FFFFFF" d="M901.703,864.63l20.335-137.705c-213.043-70.701-429.241-70.719-642.485,0.003l20.332,137.707&#10;&#9;&#9;C499.738,799.547,702.055,799.578,901.703,864.63z M829.381,731.296c20.496,4.528,30.705,7.049,51.013,12.605&#10;&#9;&#9;c-1.898,6.937-2.847,10.406-4.745,17.343c-6.255-1.711-9.388-2.542-15.663-4.154c-6.015,23.413-9.022,35.119-15.037,58.531&#10;&#9;&#9;c-7.085-1.82-10.633-2.697-17.743-4.383c5.578-23.521,8.367-35.281,13.944-58.801c-6.251-1.482-9.381-2.199-15.649-3.584&#10;&#9;&#9;C827.054,741.831,827.829,738.319,829.381,731.296z M779.055,721.663c7.75,1.323,11.621,2.021,19.352,3.489&#10;&#9;&#9;c-4.862,25.609-9.725,51.219-14.587,76.828c-7.16-1.36-10.745-2.006-17.923-3.231C770.283,773.054,774.669,747.359,779.055,721.663&#10;&#9;&#9;z M655.397,732.685c11.242-9.294,16.989-13.866,28.729-22.844c11.24,0.887,16.856,1.405,28.075,2.591&#10;&#9;&#9;c-19.052,13.734-28.274,20.823-46.083,35.374c15.806,16.665,23.381,25.157,37.86,42.393c-10.434-1.103-15.658-1.585-26.111-2.409&#10;&#9;&#9;c-9.338-10.597-14.138-15.841-23.996-26.207c-0.519,9.817-0.778,14.725-1.297,24.542c-7.249-0.383-10.875-0.541-18.128-0.79&#10;&#9;&#9;c0.894-26.052,1.788-52.103,2.682-78.155c7.831,0.269,11.746,0.439,19.573,0.853C656.178,717.894,655.918,722.824,655.397,732.685z&#10;&#9;&#9; M384.285,808.67c-1.288,0.432-2.598,0.799-3.922,1.102c-7.487,1.711-15.445,1.358-22.737-1.06&#10;&#9;&#9;c-11.444-3.796-21.131-12.856-25.214-24.2c-8.283-23.014,8.474-46.517,31.356-51.229c10.454-2.153,21.678-0.319,30.903,5.05&#10;&#9;&#9;c-3.578,5.032-7.156,10.064-10.734,15.096c-7.125-3.726-16.103-3.958-23.17-0.124c-7.068,3.835-11.839,11.799-11.37,19.826&#10;&#9;&#9;c0.532,9.099,7.876,17.207,16.78,19.158c8.903,1.951,18.677-2.064,24.095-9.393c5.104,3.248,10.209,6.496,15.313,9.744&#10;&#9;&#9;C400.451,800.082,392.858,805.797,384.285,808.67z M501.782,765.708c-1.648,4.939-4.091,9.339-7.313,13.218&#10;&#9;&#9;c-3.223,3.877-7.098,7.115-11.629,9.735s-9.472,4.286-14.866,5.023c-5.396,0.737-10.606,0.457-15.681-0.85&#10;&#9;&#9;c-5.072-1.308-9.663-3.389-13.778-6.265c-4.115-2.875-7.636-6.463-10.554-10.779c-2.917-4.313-4.867-9.116-5.811-14.425&#10;&#9;&#9;c-0.943-5.304-0.768-10.491,0.579-15.551c1.347-5.057,3.595-9.64,6.76-13.722c3.167-4.084,7.155-7.546,11.954-10.36&#10;&#9;&#9;c4.803-2.813,10.136-4.63,15.961-5.426c5.823-0.795,11.445-0.475,16.817,0.948c5.373,1.424,10.158,3.688,14.333,6.77&#10;&#9;&#9;c4.175,3.08,7.581,6.891,10.23,11.402c2.649,4.514,4.206,9.464,4.72,14.827C504.018,755.621,503.43,760.771,501.782,765.708z&#10;&#9;&#9; M552.576,782.75c-4.9-1.82-9.242-4.361-13.031-7.643c-3.789-3.282-6.916-7.212-9.371-11.804&#10;&#9;&#9;c-2.454-4.589-3.899-9.567-4.295-14.945c-0.396-5.373,0.306-10.514,2.157-15.409c1.851-4.893,4.547-9.22,8.102-12.956&#10;&#9;&#9;c3.557-3.737,7.866-6.773,12.915-9.081c5.052-2.307,10.53-3.568,16.394-3.764c5.861-0.196,11.41,0.697,16.601,2.662&#10;&#9;&#9;c5.191,1.966,9.713,4.707,13.545,8.199c3.833,3.491,6.829,7.629,9,12.388c2.171,4.761,3.213,9.844,3.176,15.232&#10;&#9;&#9;c-0.037,5.393-1.146,10.455-3.288,15.198c-2.142,4.745-5.017,8.872-8.614,12.402c-3.597,3.528-7.776,6.352-12.543,8.495&#10;&#9;&#9;c-4.766,2.143-9.842,3.296-15.271,3.477C562.621,785.381,557.479,784.57,552.576,782.75z" style="fill: rgb(44, 31, 219);"/>
	<path fill="#221B3F" d="M366.177,792.289c-8.903-1.951-16.248-10.059-16.78-19.158c-0.469-8.027,4.302-15.991,11.37-19.826&#10;&#9;&#9;c7.068-3.835,16.045-3.603,23.17,0.124c3.578-5.032,7.156-10.064,10.734-15.096c-9.225-5.368-20.449-7.202-30.903-5.05&#10;&#9;&#9;c-22.882,4.712-39.639,28.215-31.356,51.229c4.083,11.345,13.77,20.405,25.214,24.2c7.292,2.419,15.25,2.771,22.737,1.06&#10;&#9;&#9;c1.324-0.302,2.633-0.67,3.922-1.102c8.573-2.873,16.167-8.588,21.3-16.031c-5.104-3.248-10.209-6.496-15.313-9.744&#10;&#9;&#9;C384.854,790.225,375.08,794.24,366.177,792.289z" style="fill: rgb(255, 255, 255);"/>
	<path fill="#221B3F" d="M498.784,735.426c-2.649-4.511-6.055-8.322-10.23-11.402c-4.175-3.081-8.96-5.345-14.333-6.77&#10;&#9;&#9;c-5.373-1.423-10.994-1.743-16.817-0.948c-5.826,0.796-11.159,2.612-15.961,5.426c-4.799,2.814-8.787,6.276-11.954,10.36&#10;&#9;&#9;c-3.164,4.082-5.412,8.664-6.76,13.722c-1.347,5.06-1.522,10.247-0.579,15.551c0.944,5.309,2.894,10.112,5.811,14.425&#10;&#9;&#9;c2.918,4.316,6.439,7.903,10.554,10.779c4.115,2.876,8.705,4.957,13.778,6.265c5.075,1.307,10.285,1.587,15.681,0.85&#10;&#9;&#9;c5.394-0.737,10.335-2.404,14.866-5.023s8.406-5.858,11.629-9.735c3.222-3.879,5.665-8.279,7.313-13.218&#10;&#9;&#9;c1.649-4.937,2.236-10.086,1.722-15.454C502.99,744.89,501.433,739.94,498.784,735.426z M484.816,756.246&#10;&#9;&#9;c-0.583,7.339-5.496,14.036-12.076,17.339c-2.242,1.125-4.674,1.843-7.161,2.162c-6.825,0.877-14.062-1.242-18.912-6.131&#10;&#9;&#9;c-6.586-6.639-7.949-18.068-2.651-25.891c5.292-7.813,16.408-11.581,25.391-9.017C478.6,737.331,485.573,746.716,484.816,756.246z" style="fill: rgb(255, 255, 255);"/>
	<path fill="#221B3F" d="M583.324,781.723c4.767-2.143,8.946-4.968,12.543-8.495c3.597-3.53,6.472-7.656,8.614-12.402&#10;&#9;&#9;c2.142-4.743,3.251-9.805,3.288-15.198c0.037-5.387-1.005-10.471-3.176-15.232c-2.171-4.758-5.167-8.897-9-12.388&#10;&#9;&#9;c-3.833-3.492-8.355-6.233-13.545-8.199c-5.19-1.965-10.739-2.858-16.601-2.662c-5.864,0.196-11.342,1.457-16.394,3.764&#10;&#9;&#9;c-5.049,2.308-9.358,5.343-12.915,9.081c-3.555,3.736-6.251,8.064-8.102,12.956c-1.851,4.895-2.552,10.036-2.157,15.409&#10;&#9;&#9;c0.396,5.378,1.841,10.355,4.295,14.945c2.454,4.592,5.582,8.522,9.371,11.804c3.789,3.282,8.131,5.823,13.031,7.643&#10;&#9;&#9;c4.903,1.82,10.045,2.632,15.477,2.45C573.482,785.019,578.558,783.866,583.324,781.723z M548.415,734.217&#10;&#9;&#9;c5.788-7.831,17.624-11.111,26.636-7.719c9.587,3.609,15.832,14.838,13.191,24.735c-1.517,5.685-5.646,10.541-10.845,13.297&#10;&#9;&#9;c-3.041,1.612-6.456,2.459-9.895,2.565c-5.978,0.183-12.031-1.872-16.33-6.034C544.247,754.356,542.556,742.144,548.415,734.217z" style="fill: rgb(255, 255, 255);"/>
	<path fill="#221B3F" d="M634.444,785.336c7.253,0.249,10.879,0.407,18.128,0.79c0.518-9.817,0.778-14.725,1.297-24.542&#10;&#9;&#9;c9.858,10.365,14.658,15.61,23.996,26.207c10.454,0.824,15.677,1.305,26.111,2.409c-14.479-17.237-22.053-25.728-37.86-42.393&#10;&#9;&#9;c17.81-14.551,27.031-21.639,46.083-35.374c-11.219-1.186-16.835-1.705-28.075-2.591c-11.739,8.978-17.486,13.55-28.729,22.844&#10;&#9;&#9;c0.521-9.86,0.782-14.79,1.303-24.65c-7.827-0.413-11.741-0.584-19.573-0.853C636.232,733.233,635.338,759.284,634.444,785.336z" style="fill: rgb(255, 255, 255);"/>
	<path fill="#221B3F" d="M798.407,725.152c-7.731-1.468-11.601-2.165-19.352-3.489c-4.386,25.695-8.773,51.391-13.158,77.086&#10;&#9;&#9;c7.178,1.225,10.763,1.871,17.923,3.231C788.682,776.371,793.544,750.761,798.407,725.152z" style="fill: rgb(255, 255, 255);"/>
	<path fill="#221B3F" d="M827.206,811.239c7.109,1.686,10.658,2.563,17.743,4.383c6.016-23.412,9.023-35.119,15.037-58.531&#10;&#9;&#9;c6.275,1.612,9.407,2.443,15.663,4.154c1.898-6.937,2.847-10.406,4.745-17.343c-20.308-5.556-30.517-8.077-51.013-12.605&#10;&#9;&#9;c-1.552,7.023-2.327,10.534-3.879,17.557c6.268,1.385,9.398,2.102,15.649,3.584C835.573,775.958,832.784,787.718,827.206,811.239z" style="fill: rgb(255, 255, 255);"/>
</g>
</svg>